<?xml version="1.0" encoding="utf-8" standalone="no"?>
<!DOCTYPE svg PUBLIC "-//W3C//DTD SVG 1.1//EN"
  "http://www.w3.org/Graphics/SVG/1.1/DTD/svg11.dtd">
<!-- Created with matplotlib (https://matplotlib.org/) -->
<svg height="360pt" version="1.1" viewBox="0 0 720 360" width="720pt" xmlns="http://www.w3.org/2000/svg" xmlns:xlink="http://www.w3.org/1999/xlink">
 <metadata>
  <rdf:RDF xmlns:cc="http://creativecommons.org/ns#" xmlns:dc="http://purl.org/dc/elements/1.1/" xmlns:rdf="http://www.w3.org/1999/02/22-rdf-syntax-ns#">
   <cc:Work>
    <dc:type rdf:resource="http://purl.org/dc/dcmitype/StillImage"/>
    <dc:date>2020-08-07T09:14:26.955922</dc:date>
    <dc:format>image/svg+xml</dc:format>
    <dc:creator>
     <cc:Agent>
      <dc:title>Matplotlib v3.3.0, https://matplotlib.org/</dc:title>
     </cc:Agent>
    </dc:creator>
   </cc:Work>
  </rdf:RDF>
 </metadata>
 <defs>
  <style type="text/css">*{stroke-linecap:butt;stroke-linejoin:round;}</style>
 </defs>
 <g id="figure_1">
  <g id="axes_1">
   <g id="patch_1">
    <path clip-path="url(#p6336244515)" d="M 32.727273 347712.719628 
L 39.272727 347712.719628 
L 39.272727 98.047794 
L 32.727273 98.047794 
z
" style="fill:#5f9ea0;"/>
   </g>
   <g id="patch_2">
    <path clip-path="url(#p6336244515)" d="M 39.272727 347712.719628 
L 45.818182 347712.719628 
L 45.818182 79.959717 
L 39.272727 79.959717 
z
" style="fill:#5f9ea0;"/>
   </g>
   <g id="patch_3">
    <path clip-path="url(#p6336244515)" d="M 45.818182 347712.719628 
L 52.363636 347712.719628 
L 52.363636 193.087604 
L 45.818182 193.087604 
z
" style="fill:#5f9ea0;"/>
   </g>
   <g id="patch_4">
    <path clip-path="url(#p6336244515)" d="M 52.363636 347712.719628 
L 58.909091 347712.719628 
L 58.909091 10.0301 
L 52.363636 10.0301 
z
" style="fill:#5f9ea0;"/>
   </g>
   <g id="patch_5">
    <path clip-path="url(#p6336244515)" d="M 58.909091 347712.719628 
L 65.454545 347712.719628 
L 65.454545 94.878142 
L 58.909091 94.878142 
z
" style="fill:#5f9ea0;"/>
   </g>
   <g id="patch_6">
    <path clip-path="url(#p6336244515)" d="M 65.454545 347712.719628 
L 72 347712.719628 
L 72 48.847026 
L 65.454545 48.847026 
z
" style="fill:#5f9ea0;"/>
   </g>
   <g id="patch_7">
    <path clip-path="url(#p6336244515)" d="M 72 347712.719628 
L 78.545455 347712.719628 
L 78.545455 36.470907 
L 72 36.470907 
z
" style="fill:#5f9ea0;"/>
   </g>
   <g id="patch_8">
    <path clip-path="url(#p6336244515)" d="M 78.545455 347712.719628 
L 85.090909 347712.719628 
L 85.090909 37.360176 
L 78.545455 37.360176 
z
" style="fill:#5f9ea0;"/>
   </g>
   <g id="patch_9">
    <path clip-path="url(#p6336244515)" d="M 85.090909 347712.719628 
L 91.636364 347712.719628 
L 91.636364 34.883339 
L 85.090909 34.883339 
z
" style="fill:#5f9ea0;"/>
   </g>
   <g id="patch_10">
    <path clip-path="url(#p6336244515)" d="M 91.636364 347712.719628 
L 98.181818 347712.719628 
L 98.181818 43.179371 
L 91.636364 43.179371 
z
" style="fill:#5f9ea0;"/>
   </g>
   <g id="patch_11">
    <path clip-path="url(#p6336244515)" d="M 98.181818 347712.719628 
L 104.727273 347712.719628 
L 104.727273 34.707972 
L 98.181818 34.707972 
z
" style="fill:#5f9ea0;"/>
   </g>
   <g id="patch_12">
    <path clip-path="url(#p6336244515)" d="M 104.727273 347712.719628 
L 111.272727 347712.719628 
L 111.272727 35.058911 
L 104.727273 35.058911 
z
" style="fill:#5f9ea0;"/>
   </g>
   <g id="patch_13">
    <path clip-path="url(#p6336244515)" d="M 111.272727 347712.719628 
L 117.818182 347712.719628 
L 117.818182 41.70335 
L 111.272727 41.70335 
z
" style="fill:#5f9ea0;"/>
   </g>
   <g id="patch_14">
    <path clip-path="url(#p6336244515)" d="M 117.818182 347712.719628 
L 124.363636 347712.719628 
L 124.363636 38.974219 
L 117.818182 38.974219 
z
" style="fill:#5f9ea0;"/>
   </g>
   <g id="patch_15">
    <path clip-path="url(#p6336244515)" d="M 124.363636 347712.719628 
L 130.909091 347712.719628 
L 130.909091 35.234688 
L 124.363636 35.234688 
z
" style="fill:#5f9ea0;"/>
   </g>
   <g id="patch_16">
    <path clip-path="url(#p6336244515)" d="M 130.909091 347712.719628 
L 137.454545 347712.719628 
L 137.454545 38.075393 
L 130.909091 38.075393 
z
" style="fill:#5f9ea0;"/>
   </g>
   <g id="patch_17">
    <path clip-path="url(#p6336244515)" d="M 137.454545 347712.719628 
L 144 347712.719628 
L 144 37.538662 
L 137.454545 37.538662 
z
" style="fill:#5f9ea0;"/>
   </g>
   <g id="patch_18">
    <path clip-path="url(#p6336244515)" d="M 144 347712.719628 
L 150.545455 347712.719628 
L 150.545455 38.075393 
L 144 38.075393 
z
" style="fill:#5f9ea0;"/>
   </g>
   <g id="patch_19">
    <path clip-path="url(#p6336244515)" d="M 150.545455 347712.719628 
L 157.090909 347712.719628 
L 157.090909 35.41067 
L 150.545455 35.41067 
z
" style="fill:#5f9ea0;"/>
   </g>
   <g id="patch_20">
    <path clip-path="url(#p6336244515)" d="M 157.090909 347712.719628 
L 163.636364 347712.719628 
L 163.636364 41.336595 
L 157.090909 41.336595 
z
" style="fill:#5f9ea0;"/>
   </g>
   <g id="patch_21">
    <path clip-path="url(#p6336244515)" d="M 163.636364 347712.719628 
L 170.181818 347712.719628 
L 170.181818 36.116664 
L 163.636364 36.116664 
z
" style="fill:#5f9ea0;"/>
   </g>
   <g id="patch_22">
    <path clip-path="url(#p6336244515)" d="M 170.181818 347712.719628 
L 176.727273 347712.719628 
L 176.727273 39.335258 
L 170.181818 39.335258 
z
" style="fill:#5f9ea0;"/>
   </g>
   <g id="patch_23">
    <path clip-path="url(#p6336244515)" d="M 176.727273 347712.719628 
L 183.272727 347712.719628 
L 183.272727 40.423597 
L 176.727273 40.423597 
z
" style="fill:#5f9ea0;"/>
   </g>
   <g id="patch_24">
    <path clip-path="url(#p6336244515)" d="M 183.272727 347712.719628 
L 189.818182 347712.719628 
L 189.818182 31.929523 
L 183.272727 31.929523 
z
" style="fill:#5f9ea0;"/>
   </g>
   <g id="patch_25">
    <path clip-path="url(#p6336244515)" d="M 189.818182 347712.719628 
L 196.363636 347712.719628 
L 196.363636 37.538662 
L 189.818182 37.538662 
z
" style="fill:#5f9ea0;"/>
   </g>
   <g id="patch_26">
    <path clip-path="url(#p6336244515)" d="M 196.363636 347712.719628 
L 202.909091 347712.719628 
L 202.909091 40.059942 
L 196.363636 40.059942 
z
" style="fill:#5f9ea0;"/>
   </g>
   <g id="patch_27">
    <path clip-path="url(#p6336244515)" d="M 202.909091 347712.719628 
L 209.454545 347712.719628 
L 209.454545 36.470907 
L 202.909091 36.470907 
z
" style="fill:#5f9ea0;"/>
   </g>
   <g id="patch_28">
    <path clip-path="url(#p6336244515)" d="M 209.454545 347712.719628 
L 216 347712.719628 
L 216 38.075393 
L 209.454545 38.075393 
z
" style="fill:#5f9ea0;"/>
   </g>
   <g id="patch_29">
    <path clip-path="url(#p6336244515)" d="M 216 347712.719628 
L 222.545455 347712.719628 
L 222.545455 36.648341 
L 216 36.648341 
z
" style="fill:#5f9ea0;"/>
   </g>
   <g id="patch_30">
    <path clip-path="url(#p6336244515)" d="M 222.545455 347712.719628 
L 229.090909 347712.719628 
L 229.090909 39.878444 
L 222.545455 39.878444 
z
" style="fill:#5f9ea0;"/>
   </g>
   <g id="patch_31">
    <path clip-path="url(#p6336244515)" d="M 229.090909 347712.719628 
L 235.636364 347712.719628 
L 235.636364 37.89627 
L 229.090909 37.89627 
z
" style="fill:#5f9ea0;"/>
   </g>
   <g id="patch_32">
    <path clip-path="url(#p6336244515)" d="M 235.636364 347712.719628 
L 242.181818 347712.719628 
L 242.181818 38.075393 
L 235.636364 38.075393 
z
" style="fill:#5f9ea0;"/>
   </g>
   <g id="patch_33">
    <path clip-path="url(#p6336244515)" d="M 242.181818 347712.719628 
L 248.727273 347712.719628 
L 248.727273 33.834186 
L 242.181818 33.834186 
z
" style="fill:#5f9ea0;"/>
   </g>
   <g id="patch_34">
    <path clip-path="url(#p6336244515)" d="M 248.727273 347712.719628 
L 255.272727 347712.719628 
L 255.272727 35.763253 
L 248.727273 35.763253 
z
" style="fill:#5f9ea0;"/>
   </g>
   <g id="patch_35">
    <path clip-path="url(#p6336244515)" d="M 255.272727 347712.719628 
L 261.818182 347712.719628 
L 261.818182 45.232821 
L 255.272727 45.232821 
z
" style="fill:#5f9ea0;"/>
   </g>
   <g id="patch_36">
    <path clip-path="url(#p6336244515)" d="M 261.818182 347712.719628 
L 268.363636 347712.719628 
L 268.363636 36.648341 
L 261.818182 36.648341 
z
" style="fill:#5f9ea0;"/>
   </g>
   <g id="patch_37">
    <path clip-path="url(#p6336244515)" d="M 268.363636 347712.719628 
L 274.909091 347712.719628 
L 274.909091 40.423597 
L 268.363636 40.423597 
z
" style="fill:#5f9ea0;"/>
   </g>
   <g id="patch_38">
    <path clip-path="url(#p6336244515)" d="M 274.909091 347712.719628 
L 281.454545 347712.719628 
L 281.454545 34.532808 
L 274.909091 34.532808 
z
" style="fill:#5f9ea0;"/>
   </g>
   <g id="patch_39">
    <path clip-path="url(#p6336244515)" d="M 281.454545 347712.719628 
L 288 347712.719628 
L 288 35.939855 
L 281.454545 35.939855 
z
" style="fill:#5f9ea0;"/>
   </g>
   <g id="patch_40">
    <path clip-path="url(#p6336244515)" d="M 288 347712.719628 
L 294.545455 347712.719628 
L 294.545455 43.922844 
L 288 43.922844 
z
" style="fill:#5f9ea0;"/>
   </g>
   <g id="patch_41">
    <path clip-path="url(#p6336244515)" d="M 294.545455 347712.719628 
L 301.090909 347712.719628 
L 301.090909 36.116664 
L 294.545455 36.116664 
z
" style="fill:#5f9ea0;"/>
   </g>
   <g id="patch_42">
    <path clip-path="url(#p6336244515)" d="M 301.090909 347712.719628 
L 307.636364 347712.719628 
L 307.636364 36.293681 
L 301.090909 36.293681 
z
" style="fill:#5f9ea0;"/>
   </g>
   <g id="patch_43">
    <path clip-path="url(#p6336244515)" d="M 307.636364 347712.719628 
L 314.181818 347712.719628 
L 314.181818 37.71736 
L 307.636364 37.71736 
z
" style="fill:#5f9ea0;"/>
   </g>
   <g id="patch_44">
    <path clip-path="url(#p6336244515)" d="M 314.181818 347712.719628 
L 320.727273 347712.719628 
L 320.727273 38.25473 
L 314.181818 38.25473 
z
" style="fill:#5f9ea0;"/>
   </g>
   <g id="patch_45">
    <path clip-path="url(#p6336244515)" d="M 320.727273 347712.719628 
L 327.272727 347712.719628 
L 327.272727 38.43428 
L 320.727273 38.43428 
z
" style="fill:#5f9ea0;"/>
   </g>
   <g id="patch_46">
    <path clip-path="url(#p6336244515)" d="M 327.272727 347712.719628 
L 333.818182 347712.719628 
L 333.818182 35.41067 
L 327.272727 35.41067 
z
" style="fill:#5f9ea0;"/>
   </g>
   <g id="patch_47">
    <path clip-path="url(#p6336244515)" d="M 333.818182 347712.719628 
L 340.363636 347712.719628 
L 340.363636 38.794024 
L 333.818182 38.794024 
z
" style="fill:#5f9ea0;"/>
   </g>
   <g id="patch_48">
    <path clip-path="url(#p6336244515)" d="M 340.363636 347712.719628 
L 346.909091 347712.719628 
L 346.909091 37.181902 
L 340.363636 37.181902 
z
" style="fill:#5f9ea0;"/>
   </g>
   <g id="patch_49">
    <path clip-path="url(#p6336244515)" d="M 346.909091 347712.719628 
L 353.454545 347712.719628 
L 353.454545 42.255164 
L 346.909091 42.255164 
z
" style="fill:#5f9ea0;"/>
   </g>
   <g id="patch_50">
    <path clip-path="url(#p6336244515)" d="M 353.454545 347712.719628 
L 360 347712.719628 
L 360 33.486086 
L 353.454545 33.486086 
z
" style="fill:#5f9ea0;"/>
   </g>
   <g id="patch_51">
    <path clip-path="url(#p6336244515)" d="M 360 347712.719628 
L 366.545455 347712.719628 
L 366.545455 39.878444 
L 360 39.878444 
z
" style="fill:#5f9ea0;"/>
   </g>
   <g id="patch_52">
    <path clip-path="url(#p6336244515)" d="M 366.545455 347712.719628 
L 373.090909 347712.719628 
L 373.090909 37.003838 
L 366.545455 37.003838 
z
" style="fill:#5f9ea0;"/>
   </g>
   <g id="patch_53">
    <path clip-path="url(#p6336244515)" d="M 373.090909 347712.719628 
L 379.636364 347712.719628 
L 379.636364 38.43428 
L 373.090909 38.43428 
z
" style="fill:#5f9ea0;"/>
   </g>
   <g id="patch_54">
    <path clip-path="url(#p6336244515)" d="M 379.636364 347712.719628 
L 386.181818 347712.719628 
L 386.181818 36.470907 
L 379.636364 36.470907 
z
" style="fill:#5f9ea0;"/>
   </g>
   <g id="patch_55">
    <path clip-path="url(#p6336244515)" d="M 386.181818 347712.719628 
L 392.727273 347712.719628 
L 392.727273 37.181902 
L 386.181818 37.181902 
z
" style="fill:#5f9ea0;"/>
   </g>
   <g id="patch_56">
    <path clip-path="url(#p6336244515)" d="M 392.727273 347712.719628 
L 399.272727 347712.719628 
L 399.272727 34.707972 
L 392.727273 34.707972 
z
" style="fill:#5f9ea0;"/>
   </g>
   <g id="patch_57">
    <path clip-path="url(#p6336244515)" d="M 399.272727 347712.719628 
L 405.818182 347712.719628 
L 405.818182 41.887063 
L 399.272727 41.887063 
z
" style="fill:#5f9ea0;"/>
   </g>
   <g id="patch_58">
    <path clip-path="url(#p6336244515)" d="M 405.818182 347712.719628 
L 412.363636 347712.719628 
L 412.363636 37.181902 
L 405.818182 37.181902 
z
" style="fill:#5f9ea0;"/>
   </g>
   <g id="patch_59">
    <path clip-path="url(#p6336244515)" d="M 412.363636 347712.719628 
L 418.909091 347712.719628 
L 418.909091 36.648341 
L 412.363636 36.648341 
z
" style="fill:#5f9ea0;"/>
   </g>
   <g id="patch_60">
    <path clip-path="url(#p6336244515)" d="M 418.909091 347712.719628 
L 425.454545 347712.719628 
L 425.454545 40.423597 
L 418.909091 40.423597 
z
" style="fill:#5f9ea0;"/>
   </g>
   <g id="patch_61">
    <path clip-path="url(#p6336244515)" d="M 425.454545 347712.719628 
L 432 347712.719628 
L 432 37.360176 
L 425.454545 37.360176 
z
" style="fill:#5f9ea0;"/>
   </g>
   <g id="patch_62">
    <path clip-path="url(#p6336244515)" d="M 432 347712.719628 
L 438.545455 347712.719628 
L 438.545455 38.794024 
L 432 38.794024 
z
" style="fill:#5f9ea0;"/>
   </g>
   <g id="patch_63">
    <path clip-path="url(#p6336244515)" d="M 438.545455 347712.719628 
L 445.090909 347712.719628 
L 445.090909 36.116664 
L 438.545455 36.116664 
z
" style="fill:#5f9ea0;"/>
   </g>
   <g id="patch_64">
    <path clip-path="url(#p6336244515)" d="M 445.090909 347712.719628 
L 451.636364 347712.719628 
L 451.636364 38.974219 
L 445.090909 38.974219 
z
" style="fill:#5f9ea0;"/>
   </g>
   <g id="patch_65">
    <path clip-path="url(#p6336244515)" d="M 451.636364 347712.719628 
L 458.181818 347712.719628 
L 458.181818 38.614045 
L 451.636364 38.614045 
z
" style="fill:#5f9ea0;"/>
   </g>
   <g id="patch_66">
    <path clip-path="url(#p6336244515)" d="M 458.181818 347712.719628 
L 464.727273 347712.719628 
L 464.727273 38.974219 
L 458.181818 38.974219 
z
" style="fill:#5f9ea0;"/>
   </g>
   <g id="patch_67">
    <path clip-path="url(#p6336244515)" d="M 464.727273 347712.719628 
L 471.272727 347712.719628 
L 471.272727 34.357848 
L 464.727273 34.357848 
z
" style="fill:#5f9ea0;"/>
   </g>
   <g id="patch_68">
    <path clip-path="url(#p6336244515)" d="M 471.272727 347712.719628 
L 477.818182 347712.719628 
L 477.818182 38.25473 
L 471.272727 38.25473 
z
" style="fill:#5f9ea0;"/>
   </g>
   <g id="patch_69">
    <path clip-path="url(#p6336244515)" d="M 477.818182 347712.719628 
L 484.363636 347712.719628 
L 484.363636 42.071001 
L 477.818182 42.071001 
z
" style="fill:#5f9ea0;"/>
   </g>
   <g id="patch_70">
    <path clip-path="url(#p6336244515)" d="M 484.363636 347712.719628 
L 490.909091 347712.719628 
L 490.909091 38.794024 
L 484.363636 38.794024 
z
" style="fill:#5f9ea0;"/>
   </g>
   <g id="patch_71">
    <path clip-path="url(#p6336244515)" d="M 490.909091 347712.719628 
L 497.454545 347712.719628 
L 497.454545 37.003838 
L 490.909091 37.003838 
z
" style="fill:#5f9ea0;"/>
   </g>
   <g id="patch_72">
    <path clip-path="url(#p6336244515)" d="M 497.454545 347712.719628 
L 504 347712.719628 
L 504 28.190996 
L 497.454545 28.190996 
z
" style="fill:#5f9ea0;"/>
   </g>
   <g id="patch_73">
    <path clip-path="url(#p6336244515)" d="M 504 347712.719628 
L 510.545455 347712.719628 
L 510.545455 43.922844 
L 504 43.922844 
z
" style="fill:#5f9ea0;"/>
   </g>
   <g id="patch_74">
    <path clip-path="url(#p6336244515)" d="M 510.545455 347712.719628 
L 517.090909 347712.719628 
L 517.090909 37.360176 
L 510.545455 37.360176 
z
" style="fill:#5f9ea0;"/>
   </g>
   <g id="patch_75">
    <path clip-path="url(#p6336244515)" d="M 517.090909 347712.719628 
L 523.636364 347712.719628 
L 523.636364 49.812731 
L 517.090909 49.812731 
z
" style="fill:#5f9ea0;"/>
   </g>
   <g id="patch_76">
    <path clip-path="url(#p6336244515)" d="M 523.636364 347712.719628 
L 530.181818 347712.719628 
L 530.181818 25.859378 
L 523.636364 25.859378 
z
" style="fill:#5f9ea0;"/>
   </g>
   <g id="patch_77">
    <path clip-path="url(#p6336244515)" d="M 530.181818 347712.719628 
L 536.727273 347712.719628 
L 536.727273 31.071669 
L 530.181818 31.071669 
z
" style="fill:#5f9ea0;"/>
   </g>
   <g id="patch_78">
    <path clip-path="url(#p6336244515)" d="M 536.727273 347712.719628 
L 543.272727 347712.719628 
L 543.272727 45.232821 
L 536.727273 45.232821 
z
" style="fill:#5f9ea0;"/>
   </g>
   <g id="patch_79">
    <path clip-path="url(#p6336244515)" d="M 543.272727 347712.719628 
L 549.818182 347712.719628 
L 549.818182 35.41067 
L 543.272727 35.41067 
z
" style="fill:#5f9ea0;"/>
   </g>
   <g id="patch_80">
    <path clip-path="url(#p6336244515)" d="M 549.818182 347712.719628 
L 556.363636 347712.719628 
L 556.363636 33.834186 
L 549.818182 33.834186 
z
" style="fill:#5f9ea0;"/>
   </g>
   <g id="patch_81">
    <path clip-path="url(#p6336244515)" d="M 556.363636 347712.719628 
L 562.909091 347712.719628 
L 562.909091 39.516102 
L 556.363636 39.516102 
z
" style="fill:#5f9ea0;"/>
   </g>
   <g id="patch_82">
    <path clip-path="url(#p6336244515)" d="M 562.909091 347712.719628 
L 569.454545 347712.719628 
L 569.454545 51.370861 
L 562.909091 51.370861 
z
" style="fill:#5f9ea0;"/>
   </g>
   <g id="patch_83">
    <path clip-path="url(#p6336244515)" d="M 569.454545 347712.719628 
L 576 347712.719628 
L 576 27.688315 
L 569.454545 27.688315 
z
" style="fill:#5f9ea0;"/>
   </g>
   <g id="patch_84">
    <path clip-path="url(#p6336244515)" d="M 576 347712.719628 
L 582.545455 347712.719628 
L 582.545455 53.14325 
L 576 53.14325 
z
" style="fill:#5f9ea0;"/>
   </g>
   <g id="patch_85">
    <path clip-path="url(#p6336244515)" d="M 582.545455 347712.719628 
L 589.090909 347712.719628 
L 589.090909 57.158233 
L 582.545455 57.158233 
z
" style="fill:#5f9ea0;"/>
   </g>
   <g id="patch_86">
    <path clip-path="url(#p6336244515)" d="M 589.090909 347712.719628 
L 595.636364 347712.719628 
L 595.636364 54.936754 
L 589.090909 54.936754 
z
" style="fill:#5f9ea0;"/>
   </g>
   <g id="patch_87">
    <path clip-path="url(#p6336244515)" d="M 595.636364 347712.719628 
L 602.181818 347712.719628 
L 602.181818 55.338229 
L 595.636364 55.338229 
z
" style="fill:#5f9ea0;"/>
   </g>
   <g id="patch_88">
    <path clip-path="url(#p6336244515)" d="M 602.181818 347712.719628 
L 608.727273 347712.719628 
L 608.727273 40.970731 
L 602.181818 40.970731 
z
" style="fill:#5f9ea0;"/>
   </g>
   <g id="patch_89">
    <path clip-path="url(#p6336244515)" d="M 608.727273 347712.719628 
L 615.272727 347712.719628 
L 615.272727 28.023249 
L 608.727273 28.023249 
z
" style="fill:#5f9ea0;"/>
   </g>
   <g id="patch_90">
    <path clip-path="url(#p6336244515)" d="M 615.272727 347712.719628 
L 621.818182 347712.719628 
L 621.818182 42.071001 
L 615.272727 42.071001 
z
" style="fill:#5f9ea0;"/>
   </g>
   <g id="patch_91">
    <path clip-path="url(#p6336244515)" d="M 621.818182 347712.719628 
L 628.363636 347712.719628 
L 628.363636 24.54306 
L 621.818182 24.54306 
z
" style="fill:#5f9ea0;"/>
   </g>
   <g id="patch_92">
    <path clip-path="url(#p6336244515)" d="M 628.363636 347712.719628 
L 634.909091 347712.719628 
L 634.909091 56.95492 
L 628.363636 56.95492 
z
" style="fill:#5f9ea0;"/>
   </g>
   <g id="patch_93">
    <path clip-path="url(#p6336244515)" d="M 634.909091 347712.719628 
L 641.454545 347712.719628 
L 641.454545 193.087604 
L 634.909091 193.087604 
z
" style="fill:#5f9ea0;"/>
   </g>
   <g id="patch_94">
    <path clip-path="url(#p6336244515)" d="M 641.454545 347712.719628 
L 648 347712.719628 
L 648 210.63211 
L 641.454545 210.63211 
z
" style="fill:#5f9ea0;"/>
   </g>
   <g id="patch_95">
    <path clip-path="url(#p6336244515)" d="M 648 347712.719628 
L 654.545455 347712.719628 
L 654.545455 80.671552 
L 648 80.671552 
z
" style="fill:#5f9ea0;"/>
   </g>
   <g id="patch_96">
    <path clip-path="url(#p6336244515)" d="M 654.545455 347712.719628 
L 661.090909 347712.719628 
L 661.090909 54.936754 
L 654.545455 54.936754 
z
" style="fill:#5f9ea0;"/>
   </g>
   <g id="patch_97">
    <path clip-path="url(#p6336244515)" d="M 661.090909 347712.719628 
L 667.636364 347712.719628 
L 667.636364 132.378582 
L 661.090909 132.378582 
z
" style="fill:#5f9ea0;"/>
   </g>
   <g id="patch_98">
    <path clip-path="url(#p6336244515)" d="M 667.636364 347712.719628 
L 674.181818 347712.719628 
L 674.181818 193.087604 
L 667.636364 193.087604 
z
" style="fill:#5f9ea0;"/>
   </g>
   <g id="patch_99">
    <path clip-path="url(#p6336244515)" d="M 674.181818 347712.719628 
L 680.727273 347712.719628 
L 680.727273 193.087604 
L 674.181818 193.087604 
z
" style="fill:#5f9ea0;"/>
   </g>
   <g id="patch_100">
    <path clip-path="url(#p6336244515)" d="M 680.727273 347712.719628 
L 687.272727 347712.719628 
L 687.272727 88.732271 
L 680.727273 88.732271 
z
" style="fill:#5f9ea0;"/>
   </g>
  </g>
 </g>
 <defs>
  <clipPath id="p6336244515">
   <rect height="360" width="720" x="0" y="0"/>
  </clipPath>
 </defs>
</svg>
